<mxfile host="app.diagrams.net" agent="Mozilla/5.0 (Windows NT 10.0; Win64; x64) AppleWebKit/537.36 (KHTML, like Gecko) Chrome/140.0.0.0 Safari/537.36" version="28.1.2">
  <diagram name="Page-1" id="JEjgt8Y7Z-vk6pv3K9CY">
    <mxGraphModel dx="863" dy="473" grid="1" gridSize="10" guides="1" tooltips="1" connect="1" arrows="1" fold="1" page="1" pageScale="1" pageWidth="1100" pageHeight="850" math="0" shadow="0">
      <root>
        <mxCell id="0" />
        <mxCell id="1" parent="0" />
        <mxCell id="H2DMha2lDXCGfiCha4f5-23" value="&lt;div&gt;&lt;font style=&quot;font-size: 20px;&quot;&gt;&lt;br&gt;&lt;/font&gt;&lt;/div&gt;&lt;div&gt;&lt;font style=&quot;font-size: 20px;&quot;&gt;&lt;br&gt;&lt;/font&gt;&lt;/div&gt;&lt;div&gt;&lt;font style=&quot;font-size: 20px;&quot;&gt;&lt;br&gt;&lt;/font&gt;&lt;/div&gt;&lt;font style=&quot;font-size: 20px;&quot;&gt;User&lt;/font&gt;" style="shape=actor;whiteSpace=wrap;html=1;" parent="1" vertex="1">
          <mxGeometry x="120" y="140" width="160" height="140" as="geometry" />
        </mxCell>
        <mxCell id="H2DMha2lDXCGfiCha4f5-28" value="&lt;font style=&quot;font-size: 14px;&quot;&gt;Sends prompts with&lt;/font&gt;&lt;div&gt;&lt;font style=&quot;font-size: 14px;&quot;&gt;the user&#39;s question&lt;/font&gt;&lt;/div&gt;&lt;div&gt;&lt;font style=&quot;font-size: 14px;&quot;&gt;and data specification&lt;/font&gt;&lt;/div&gt;" style="edgeStyle=orthogonalEdgeStyle;rounded=0;orthogonalLoop=1;jettySize=auto;html=1;entryX=0;entryY=0.25;entryDx=0;entryDy=0;exitX=1;exitY=0.25;exitDx=0;exitDy=0;" parent="1" source="H2DMha2lDXCGfiCha4f5-24" target="H2DMha2lDXCGfiCha4f5-25" edge="1">
          <mxGeometry y="30" relative="1" as="geometry">
            <mxPoint as="offset" />
            <mxPoint x="720" y="181" as="sourcePoint" />
            <mxPoint x="850" y="181" as="targetPoint" />
          </mxGeometry>
        </mxCell>
        <mxCell id="eNGGqZjtoy9U4MygmMPT-2" style="edgeStyle=orthogonalEdgeStyle;rounded=0;orthogonalLoop=1;jettySize=auto;html=1;entryX=1;entryY=0.75;entryDx=0;entryDy=0;exitX=0.25;exitY=0.708;exitDx=0;exitDy=0;exitPerimeter=0;" edge="1" parent="1" source="H2DMha2lDXCGfiCha4f5-24" target="H2DMha2lDXCGfiCha4f5-23">
          <mxGeometry relative="1" as="geometry">
            <mxPoint x="500" y="245" as="sourcePoint" />
            <mxPoint x="290" y="250" as="targetPoint" />
          </mxGeometry>
        </mxCell>
        <mxCell id="eNGGqZjtoy9U4MygmMPT-3" value="&lt;font style=&quot;font-size: 14px;&quot;&gt;Returns SPARQL&lt;/font&gt;&lt;div&gt;&lt;font style=&quot;font-size: 14px;&quot;&gt;and suggestions&lt;/font&gt;&lt;/div&gt;" style="edgeLabel;html=1;align=center;verticalAlign=middle;resizable=0;points=[];" vertex="1" connectable="0" parent="eNGGqZjtoy9U4MygmMPT-2">
          <mxGeometry x="0.2081" y="-3" relative="1" as="geometry">
            <mxPoint y="28" as="offset" />
          </mxGeometry>
        </mxCell>
        <mxCell id="H2DMha2lDXCGfiCha4f5-24" value="&lt;font style=&quot;font-size: 20px;&quot;&gt;Data specification navigator&lt;/font&gt;" style="rounded=0;whiteSpace=wrap;html=1;fillColor=#3399FF;" parent="1" vertex="1">
          <mxGeometry x="520" y="160" width="160" height="120" as="geometry" />
        </mxCell>
        <mxCell id="H2DMha2lDXCGfiCha4f5-29" value="&lt;span style=&quot;font-size: 14px;&quot;&gt;Returns responses&lt;/span&gt;" style="edgeStyle=orthogonalEdgeStyle;rounded=0;orthogonalLoop=1;jettySize=auto;html=1;entryX=1;entryY=0.75;entryDx=0;entryDy=0;exitX=0;exitY=0.75;exitDx=0;exitDy=0;" parent="1" source="H2DMha2lDXCGfiCha4f5-25" target="H2DMha2lDXCGfiCha4f5-24" edge="1">
          <mxGeometry y="10" relative="1" as="geometry">
            <mxPoint as="offset" />
          </mxGeometry>
        </mxCell>
        <mxCell id="H2DMha2lDXCGfiCha4f5-25" value="&lt;font style=&quot;font-size: 20px;&quot;&gt;LLM&lt;/font&gt;" style="rounded=0;whiteSpace=wrap;html=1;fillColor=#FFF10A;" parent="1" vertex="1">
          <mxGeometry x="880" y="160" width="160" height="120" as="geometry" />
        </mxCell>
        <mxCell id="eNGGqZjtoy9U4MygmMPT-1" value="&lt;font style=&quot;font-size: 14px;&quot;&gt;Asks natural-language questions&lt;/font&gt;" style="edgeStyle=orthogonalEdgeStyle;rounded=0;orthogonalLoop=1;jettySize=auto;html=1;entryX=0.001;entryY=0.413;entryDx=0;entryDy=0;entryPerimeter=0;" edge="1" parent="1" source="H2DMha2lDXCGfiCha4f5-23" target="H2DMha2lDXCGfiCha4f5-24">
          <mxGeometry x="0.001" y="10" relative="1" as="geometry">
            <mxPoint as="offset" />
          </mxGeometry>
        </mxCell>
      </root>
    </mxGraphModel>
  </diagram>
</mxfile>
